<svg viewBox="0 0 48 48" fill="none" xmlns="http://www.w3.org/2000/svg"><g clip-path="url(#clip0_6_5365)"><circle cx="24" cy="24" r="24" fill="#1880FF" fill-opacity="0.16"/><path d="M27.5002 22.8333C27.5002 24.7663 25.9332 26.3333 24.0002 26.3333C22.0672 26.3333 20.5002 24.7663 20.5002 22.8333C20.5002 20.9003 22.0672 19.3333 24.0002 19.3333C25.9332 19.3333 27.5002 20.9003 27.5002 22.8333Z" fill="#0C73FE"/><path fill-rule="evenodd" clip-rule="evenodd" d="M24.0002 36.8334C24.0002 36.8334 35.6668 32.3931 35.6668 23.0834C35.6668 16.502 30.4435 11.1667 24.0002 11.1667C17.5568 11.1667 12.3335 16.502 12.3335 23.0834C12.3335 32.3931 24.0002 36.8334 24.0002 36.8334ZM27.0766 15.5092C26.899 15.3426 26.6647 15.25 26.4212 15.25H21.5791C21.3357 15.25 21.1013 15.3426 20.9237 15.5092L19.61 16.7408C19.4323 16.9073 19.198 17 18.9545 17H18.7502C17.1393 17 15.8335 18.3058 15.8335 19.9166V25.75C15.8335 27.3608 17.1393 28.6666 18.7502 28.6666H29.2502C30.861 28.6666 32.1668 27.3608 32.1668 25.75V19.9166C32.1668 18.3058 30.861 17 29.2502 17H29.0458C28.8023 17 28.568 16.9073 28.3904 16.7408L27.0766 15.5092Z" fill="#0C73FE"/></g><defs><clipPath id="clip0_6_5365"><rect width="48" height="48" fill="white"/></clipPath></defs></svg>