<svg fill="none" xmlns="http://www.w3.org/2000/svg"><circle cx="24" cy="24" r="24" fill="#FFF3E0"/><path d="M22.133 12.333c-.515 0-.933.382-.933.853 0 4.311-6.534 7.673-6.534 13.641 0 4.534 5.38 7.465 7.274 7.655.063.012.128.018.193.018.516 0 .934-.382.934-.852 0-.257-.127-.5-.345-.662v-.001c-.85-.63-2.456-2.455-2.456-4.122 0-2.735 2.8-3.741 2.8-3.741-1.596 4.126 3.636 4.625 4.689 8.71h.002c.095.39.473.667.91.668a.994.994 0 00.596-.198c.151-.09 4.07-2.458 4.07-7.475 0-2.048-1.121-5.567-1.928-7.125l-.002-.005-.002-.004c-.14-.325-.485-.539-.868-.54-.45.001-.835.295-.917.699v.003c-.002.01-.43 1.748-1.883 2.71 0-4.018-3.175-8.167-4.849-9.884a.978.978 0 00-.751-.348z" fill="#F57C00"/></svg>