<svg xmlns="http://www.w3.org/2000/svg" viewBox="0 0 16 16" fill="none" class="neutral_8IE"><path fill-rule="evenodd" clip-rule="evenodd" d="M10.823 1.933v-.58c0-.41-.429-.732-.958-.732H5.982c-.522 0-.958.328-.958.732V3.52H1.645A1.45 1.45 0 00.192 4.965v6.773c0 .239.059.464.162.663L9.235 3.52H5.991V1.588h3.866v1.311l.966-.966zM0 15.033L.966 16l2.816-2.815h9.94V3.52h-.276L16 .966 15.034 0 0 15.034zM14.202 3.522c.803 0 1.453.647 1.453 1.445v6.773a1.45 1.45 0 01-1.453 1.446h-.48V3.52h.48z" fill="currentColor"/></svg>