<svg viewBox="0 0 48 48" fill="none" xmlns="http://www.w3.org/2000/svg"><g clip-path="url(#clip0_6_5345)"><circle cx="24" cy="24" r="24" fill="#B983F1" fill-opacity="0.1"/><g clip-path="url(#clip1_6_5345)"><path d="M19.9313 11.3414C19.1101 20.4852 17.4414 22.1319 10.4375 23.0957C17.4414 24.0596 19.1101 25.7063 19.9313 34.8501C20.7524 25.7063 22.4206 24.0596 29.425 23.0957C22.4206 22.1319 20.7516 20.4852 19.9313 11.3414Z" fill="url(#paint0_linear_6_5345)"/><path d="M32.1374 10.4375C31.6684 15.0094 30.7151 15.8332 26.7124 16.3144C30.7147 16.7961 31.6684 17.6195 32.137 22.1918C32.606 17.6195 33.5588 16.7961 37.562 16.3144C33.5593 15.8332 32.6064 15.0094 32.1374 10.4375Z" fill="url(#paint1_linear_6_5345)"/><path d="M29.425 25.8086C28.956 30.3805 28.0023 31.2034 24 31.6855C28.0023 32.1677 28.956 32.991 29.425 37.5625C29.8936 32.991 30.8464 32.1677 34.8496 31.6851C30.8464 31.2034 29.894 30.3805 29.425 25.8086Z" fill="url(#paint2_linear_6_5345)"/></g></g><defs><linearGradient id="paint0_linear_6_5345" x1="19.9284" y1="34.8444" x2="19.9284" y2="11.3391" gradientUnits="userSpaceOnUse"><stop stop-color="#FF9900"/><stop offset="0.022" stop-color="#FF9C03"/><stop offset="0.274" stop-color="#FFB91D"/><stop offset="0.5236" stop-color="#FFCE31"/><stop offset="0.7678" stop-color="#FFDB3C"/><stop offset="1" stop-color="#FFDF40"/></linearGradient><linearGradient id="paint1_linear_6_5345" x1="32.1364" y1="22.1984" x2="32.1364" y2="10.4355" gradientUnits="userSpaceOnUse"><stop stop-color="#6FAD00"/><stop offset="0.0389" stop-color="#73B202"/><stop offset="0.2625" stop-color="#87CC0F"/><stop offset="0.4933" stop-color="#96DE17"/><stop offset="0.734" stop-color="#9EE91C"/><stop offset="1" stop-color="#A1ED1E"/></linearGradient><linearGradient id="paint2_linear_6_5345" x1="29.4296" y1="37.5625" x2="29.4296" y2="25.8098" gradientUnits="userSpaceOnUse"><stop stop-color="#7D0C7A"/><stop offset="0.094" stop-color="#930C90"/><stop offset="0.254" stop-color="#B30DAE"/><stop offset="0.4208" stop-color="#CC0DC6"/><stop offset="0.5949" stop-color="#DD0ED8"/><stop offset="0.781" stop-color="#E80EE2"/><stop offset="1" stop-color="#EB0EE5"/></linearGradient><clipPath id="clip0_6_5345"><rect width="48" height="48" fill="white"/></clipPath><clipPath id="clip1_6_5345"><rect width="28" height="28" fill="white" transform="translate(10 10)"/></clipPath></defs></svg>